<svg height="117.83631mm" viewBox="0 0 117.83631 117.83631" width="117.83631mm" xmlns="http://www.w3.org/2000/svg"><g stroke="#000" stroke-linecap="round" stroke-linejoin="round" stroke-width="3.016477" transform="translate(-49.340504 -31.826586)"><g transform="matrix(.94764222 0 0 1.0437541 7.78743 -10.354953)"><g fill="#ff6b00"><path d="m50.991955 102.01648h49.325893v49.325893h-49.325893z"/><path d="m45.357143 96.861603h60.66518v9.976076h-60.66518z" fill-opacity=".996063"/></g><rect height="5.480654" ry="2.740327" width="15.875" x="68.035713" y="113.15259"/></g><g transform="matrix(.94764222 0 0 1.0437541 65.276316 -10.354953)"><g fill="#ff6b00"><path d="m50.991955 102.01648h49.325893v49.325893h-49.325893z"/><path d="m45.357143 96.861603h60.66518v9.976076h-60.66518z" fill-opacity=".996063"/></g><rect height="5.480654" ry="2.740327" width="15.875" x="68.035713" y="113.15259"/></g><g transform="matrix(.94764222 0 0 1.0437541 36.531871 -67.219481)"><g fill="#ff6b00"><path d="m50.991955 102.01648h49.325893v49.325893h-49.325893z"/><path d="m45.357143 96.861603h60.66518v9.708807h-60.66518z" fill-opacity=".996063"/></g><rect height="5.480654" ry="2.740327" width="15.875" x="68.035713" y="113.15259"/></g></g></svg>